<svg width="24" height="24" viewBox="0 0 24 24" fill="none" xmlns="http://www.w3.org/2000/svg">
<g filter="url(#filter0_d_2492_14486)">
<path d="M11.9998 15.3337C16.0432 15.3337 19.3332 12.044 19.3332 8.00033C19.3332 7.30238 19.2357 6.61458 19.0428 5.95588C18.9478 5.63197 18.6096 5.44592 18.2848 5.54096C17.9606 5.6357 17.7751 5.97512 17.8698 6.29903C18.0296 6.84629 18.1109 7.4189 18.1109 8.00033C18.1109 11.3699 15.3695 14.1114 11.9998 14.1114C8.63022 14.1114 5.88873 11.3699 5.88873 8.00033C5.88873 4.63071 8.63022 1.88921 11.9998 1.88921C13.2244 1.88921 14.4027 2.24729 15.4071 2.92449C15.6866 3.11323 16.0668 3.03908 16.2552 2.75948C16.4438 2.47959 16.3703 2.09973 16.0904 1.91115C14.8834 1.09728 13.469 0.666992 11.9998 0.666992C7.95645 0.666992 4.6665 3.95664 4.6665 8.00033C4.6665 12.044 7.95645 15.3337 11.9998 15.3337Z" fill="#FF3F3A"/>
<path d="M18.8617 1.52885L11.9997 8.3905L9.8044 6.19552C9.54399 5.93526 9.12211 5.93526 8.86169 6.19552C8.60144 6.45593 8.60144 6.87781 8.86169 7.13822L11.5284 9.80489C11.6587 9.93526 11.829 10.0002 11.9997 10.0002C12.1705 10.0002 12.3407 9.93526 12.4711 9.80489L19.8044 2.47156C20.0647 2.21114 20.0647 1.78927 19.8044 1.52885C19.544 1.2686 19.1221 1.2686 18.8617 1.52885Z" fill="#FF3F3A"/>
</g>
<defs>
<filter id="filter0_d_2492_14486" x="0" y="0" width="24" height="24" filterUnits="userSpaceOnUse" color-interpolation-filters="sRGB">
<feFlood flood-opacity="0" result="BackgroundImageFix"/>
<feColorMatrix in="SourceAlpha" type="matrix" values="0 0 0 0 0 0 0 0 0 0 0 0 0 0 0 0 0 0 127 0" result="hardAlpha"/>
<feOffset dy="4"/>
<feGaussianBlur stdDeviation="2"/>
<feComposite in2="hardAlpha" operator="out"/>
<feColorMatrix type="matrix" values="0 0 0 0 0 0 0 0 0 0 0 0 0 0 0 0 0 0 0.25 0"/>
<feBlend mode="normal" in2="BackgroundImageFix" result="effect1_dropShadow_2492_14486"/>
<feBlend mode="normal" in="SourceGraphic" in2="effect1_dropShadow_2492_14486" result="shape"/>
</filter>
</defs>
</svg>
